# UV Sphere: closed, genus 0, radius 0.5.
#
# Face winding was reversed in July 2026. It had been inward-facing -- signed
# volume -0.50 where every other asset here is positive -- which silently
# flipped the sign of anything normal-dependent, mean curvature included, and
# made it the odd one out in a set of five.
v 0.000000 0.500000 0.000000
v 0.129410 0.482963 0.000000
v 0.119559 0.482963 0.049523
v 0.091506 0.482963 0.091506
v 0.049523 0.482963 0.119559
v 0.000000 0.482963 0.129410
v -0.049523 0.482963 0.119559
v -0.091506 0.482963 0.091506
v -0.119559 0.482963 0.049523
v -0.129410 0.482963 0.000000
v -0.119559 0.482963 -0.049523
v -0.091506 0.482963 -0.091506
v -0.049523 0.482963 -0.119559
v -0.000000 0.482963 -0.129410
v 0.049523 0.482963 -0.119559
v 0.091506 0.482963 -0.091506
v 0.119559 0.482963 -0.049523
v 0.250000 0.433013 0.000000
v 0.230970 0.433013 0.095671
v 0.176777 0.433013 0.176777
v 0.095671 0.433013 0.230970
v 0.000000 0.433013 0.250000
v -0.095671 0.433013 0.230970
v -0.176777 0.433013 0.176777
v -0.230970 0.433013 0.095671
v -0.250000 0.433013 0.000000
v -0.230970 0.433013 -0.095671
v -0.176777 0.433013 -0.176777
v -0.095671 0.433013 -0.230970
v -0.000000 0.433013 -0.250000
v 0.095671 0.433013 -0.230970
v 0.176777 0.433013 -0.176777
v 0.230970 0.433013 -0.095671
v 0.353553 0.353553 0.000000
v 0.326641 0.353553 0.135299
v 0.250000 0.353553 0.250000
v 0.135299 0.353553 0.326641
v 0.000000 0.353553 0.353553
v -0.135299 0.353553 0.326641
v -0.250000 0.353553 0.250000
v -0.326641 0.353553 0.135299
v -0.353553 0.353553 0.000000
v -0.326641 0.353553 -0.135299
v -0.250000 0.353553 -0.250000
v -0.135299 0.353553 -0.326641
v -0.000000 0.353553 -0.353553
v 0.135299 0.353553 -0.326641
v 0.250000 0.353553 -0.250000
v 0.326641 0.353553 -0.135299
v 0.433013 0.250000 0.000000
v 0.400052 0.250000 0.165707
v 0.306186 0.250000 0.306186
v 0.165707 0.250000 0.400052
v 0.000000 0.250000 0.433013
v -0.165707 0.250000 0.400052
v -0.306186 0.250000 0.306186
v -0.400052 0.250000 0.165707
v -0.433013 0.250000 0.000000
v -0.400052 0.250000 -0.165707
v -0.306186 0.250000 -0.306186
v -0.165707 0.250000 -0.400052
v -0.000000 0.250000 -0.433013
v 0.165707 0.250000 -0.400052
v 0.306186 0.250000 -0.306186
v 0.400052 0.250000 -0.165707
v 0.482963 0.129410 0.000000
v 0.446200 0.129410 0.184822
v 0.341506 0.129410 0.341506
v 0.184822 0.129410 0.446200
v 0.000000 0.129410 0.482963
v -0.184822 0.129410 0.446200
v -0.341506 0.129410 0.341506
v -0.446200 0.129410 0.184822
v -0.482963 0.129410 0.000000
v -0.446200 0.129410 -0.184822
v -0.341506 0.129410 -0.341506
v -0.184822 0.129410 -0.446200
v -0.000000 0.129410 -0.482963
v 0.184822 0.129410 -0.446200
v 0.341506 0.129410 -0.341506
v 0.446200 0.129410 -0.184822
v 0.500000 0.000000 0.000000
v 0.461940 0.000000 0.191342
v 0.353553 0.000000 0.353553
v 0.191342 0.000000 0.461940
v 0.000000 0.000000 0.500000
v -0.191342 0.000000 0.461940
v -0.353553 0.000000 0.353553
v -0.461940 0.000000 0.191342
v -0.500000 0.000000 0.000000
v -0.461940 0.000000 -0.191342
v -0.353553 0.000000 -0.353553
v -0.191342 0.000000 -0.461940
v -0.000000 0.000000 -0.500000
v 0.191342 0.000000 -0.461940
v 0.353553 0.000000 -0.353553
v 0.461940 0.000000 -0.191342
v 0.482963 -0.129410 0.000000
v 0.446200 -0.129410 0.184822
v 0.341506 -0.129410 0.341506
v 0.184822 -0.129410 0.446200
v 0.000000 -0.129410 0.482963
v -0.184822 -0.129410 0.446200
v -0.341506 -0.129410 0.341506
v -0.446200 -0.129410 0.184822
v -0.482963 -0.129410 0.000000
v -0.446200 -0.129410 -0.184822
v -0.341506 -0.129410 -0.341506
v -0.184822 -0.129410 -0.446200
v -0.000000 -0.129410 -0.482963
v 0.184822 -0.129410 -0.446200
v 0.341506 -0.129410 -0.341506
v 0.446200 -0.129410 -0.184822
v 0.433013 -0.250000 0.000000
v 0.400052 -0.250000 0.165707
v 0.306186 -0.250000 0.306186
v 0.165707 -0.250000 0.400052
v 0.000000 -0.250000 0.433013
v -0.165707 -0.250000 0.400052
v -0.306186 -0.250000 0.306186
v -0.400052 -0.250000 0.165707
v -0.433013 -0.250000 0.000000
v -0.400052 -0.250000 -0.165707
v -0.306186 -0.250000 -0.306186
v -0.165707 -0.250000 -0.400052
v -0.000000 -0.250000 -0.433013
v 0.165707 -0.250000 -0.400052
v 0.306186 -0.250000 -0.306186
v 0.400052 -0.250000 -0.165707
v 0.353553 -0.353553 0.000000
v 0.326641 -0.353553 0.135299
v 0.250000 -0.353553 0.250000
v 0.135299 -0.353553 0.326641
v 0.000000 -0.353553 0.353553
v -0.135299 -0.353553 0.326641
v -0.250000 -0.353553 0.250000
v -0.326641 -0.353553 0.135299
v -0.353553 -0.353553 0.000000
v -0.326641 -0.353553 -0.135299
v -0.250000 -0.353553 -0.250000
v -0.135299 -0.353553 -0.326641
v -0.000000 -0.353553 -0.353553
v 0.135299 -0.353553 -0.326641
v 0.250000 -0.353553 -0.250000
v 0.326641 -0.353553 -0.135299
v 0.250000 -0.433013 0.000000
v 0.230970 -0.433013 0.095671
v 0.176777 -0.433013 0.176777
v 0.095671 -0.433013 0.230970
v 0.000000 -0.433013 0.250000
v -0.095671 -0.433013 0.230970
v -0.176777 -0.433013 0.176777
v -0.230970 -0.433013 0.095671
v -0.250000 -0.433013 0.000000
v -0.230970 -0.433013 -0.095671
v -0.176777 -0.433013 -0.176777
v -0.095671 -0.433013 -0.230970
v -0.000000 -0.433013 -0.250000
v 0.095671 -0.433013 -0.230970
v 0.176777 -0.433013 -0.176777
v 0.230970 -0.433013 -0.095671
v 0.129410 -0.482963 0.000000
v 0.119559 -0.482963 0.049523
v 0.091506 -0.482963 0.091506
v 0.049523 -0.482963 0.119559
v 0.000000 -0.482963 0.129410
v -0.049523 -0.482963 0.119559
v -0.091506 -0.482963 0.091506
v -0.119559 -0.482963 0.049523
v -0.129410 -0.482963 0.000000
v -0.119559 -0.482963 -0.049523
v -0.091506 -0.482963 -0.091506
v -0.049523 -0.482963 -0.119559
v -0.000000 -0.482963 -0.129410
v 0.049523 -0.482963 -0.119559
v 0.091506 -0.482963 -0.091506
v 0.119559 -0.482963 -0.049523
v 0.000000 -0.500000 0.000000

f 3 2 1
f 4 3 1
f 5 4 1
f 6 5 1
f 7 6 1
f 8 7 1
f 9 8 1
f 10 9 1
f 11 10 1
f 12 11 1
f 13 12 1
f 14 13 1
f 15 14 1
f 16 15 1
f 17 16 1
f 2 17 1
f 19 18 2
f 3 19 2
f 20 19 3
f 4 20 3
f 21 20 4
f 5 21 4
f 22 21 5
f 6 22 5
f 23 22 6
f 7 23 6
f 24 23 7
f 8 24 7
f 25 24 8
f 9 25 8
f 26 25 9
f 10 26 9
f 27 26 10
f 11 27 10
f 28 27 11
f 12 28 11
f 29 28 12
f 13 29 12
f 30 29 13
f 14 30 13
f 31 30 14
f 15 31 14
f 32 31 15
f 16 32 15
f 33 32 16
f 17 33 16
f 18 33 17
f 2 18 17
f 35 34 18
f 19 35 18
f 36 35 19
f 20 36 19
f 37 36 20
f 21 37 20
f 38 37 21
f 22 38 21
f 39 38 22
f 23 39 22
f 40 39 23
f 24 40 23
f 41 40 24
f 25 41 24
f 42 41 25
f 26 42 25
f 43 42 26
f 27 43 26
f 44 43 27
f 28 44 27
f 45 44 28
f 29 45 28
f 46 45 29
f 30 46 29
f 47 46 30
f 31 47 30
f 48 47 31
f 32 48 31
f 49 48 32
f 33 49 32
f 34 49 33
f 18 34 33
f 51 50 34
f 35 51 34
f 52 51 35
f 36 52 35
f 53 52 36
f 37 53 36
f 54 53 37
f 38 54 37
f 55 54 38
f 39 55 38
f 56 55 39
f 40 56 39
f 57 56 40
f 41 57 40
f 58 57 41
f 42 58 41
f 59 58 42
f 43 59 42
f 60 59 43
f 44 60 43
f 61 60 44
f 45 61 44
f 62 61 45
f 46 62 45
f 63 62 46
f 47 63 46
f 64 63 47
f 48 64 47
f 65 64 48
f 49 65 48
f 50 65 49
f 34 50 49
f 67 66 50
f 51 67 50
f 68 67 51
f 52 68 51
f 69 68 52
f 53 69 52
f 70 69 53
f 54 70 53
f 71 70 54
f 55 71 54
f 72 71 55
f 56 72 55
f 73 72 56
f 57 73 56
f 74 73 57
f 58 74 57
f 75 74 58
f 59 75 58
f 76 75 59
f 60 76 59
f 77 76 60
f 61 77 60
f 78 77 61
f 62 78 61
f 79 78 62
f 63 79 62
f 80 79 63
f 64 80 63
f 81 80 64
f 65 81 64
f 66 81 65
f 50 66 65
f 83 82 66
f 67 83 66
f 84 83 67
f 68 84 67
f 85 84 68
f 69 85 68
f 86 85 69
f 70 86 69
f 87 86 70
f 71 87 70
f 88 87 71
f 72 88 71
f 89 88 72
f 73 89 72
f 90 89 73
f 74 90 73
f 91 90 74
f 75 91 74
f 92 91 75
f 76 92 75
f 93 92 76
f 77 93 76
f 94 93 77
f 78 94 77
f 95 94 78
f 79 95 78
f 96 95 79
f 80 96 79
f 97 96 80
f 81 97 80
f 82 97 81
f 66 82 81
f 99 98 82
f 83 99 82
f 100 99 83
f 84 100 83
f 101 100 84
f 85 101 84
f 102 101 85
f 86 102 85
f 103 102 86
f 87 103 86
f 104 103 87
f 88 104 87
f 105 104 88
f 89 105 88
f 106 105 89
f 90 106 89
f 107 106 90
f 91 107 90
f 108 107 91
f 92 108 91
f 109 108 92
f 93 109 92
f 110 109 93
f 94 110 93
f 111 110 94
f 95 111 94
f 112 111 95
f 96 112 95
f 113 112 96
f 97 113 96
f 98 113 97
f 82 98 97
f 115 114 98
f 99 115 98
f 116 115 99
f 100 116 99
f 117 116 100
f 101 117 100
f 118 117 101
f 102 118 101
f 119 118 102
f 103 119 102
f 120 119 103
f 104 120 103
f 121 120 104
f 105 121 104
f 122 121 105
f 106 122 105
f 123 122 106
f 107 123 106
f 124 123 107
f 108 124 107
f 125 124 108
f 109 125 108
f 126 125 109
f 110 126 109
f 127 126 110
f 111 127 110
f 128 127 111
f 112 128 111
f 129 128 112
f 113 129 112
f 114 129 113
f 98 114 113
f 131 130 114
f 115 131 114
f 132 131 115
f 116 132 115
f 133 132 116
f 117 133 116
f 134 133 117
f 118 134 117
f 135 134 118
f 119 135 118
f 136 135 119
f 120 136 119
f 137 136 120
f 121 137 120
f 138 137 121
f 122 138 121
f 139 138 122
f 123 139 122
f 140 139 123
f 124 140 123
f 141 140 124
f 125 141 124
f 142 141 125
f 126 142 125
f 143 142 126
f 127 143 126
f 144 143 127
f 128 144 127
f 145 144 128
f 129 145 128
f 130 145 129
f 114 130 129
f 147 146 130
f 131 147 130
f 148 147 131
f 132 148 131
f 149 148 132
f 133 149 132
f 150 149 133
f 134 150 133
f 151 150 134
f 135 151 134
f 152 151 135
f 136 152 135
f 153 152 136
f 137 153 136
f 154 153 137
f 138 154 137
f 155 154 138
f 139 155 138
f 156 155 139
f 140 156 139
f 157 156 140
f 141 157 140
f 158 157 141
f 142 158 141
f 159 158 142
f 143 159 142
f 160 159 143
f 144 160 143
f 161 160 144
f 145 161 144
f 146 161 145
f 130 146 145
f 163 162 146
f 147 163 146
f 164 163 147
f 148 164 147
f 165 164 148
f 149 165 148
f 166 165 149
f 150 166 149
f 167 166 150
f 151 167 150
f 168 167 151
f 152 168 151
f 169 168 152
f 153 169 152
f 170 169 153
f 154 170 153
f 171 170 154
f 155 171 154
f 172 171 155
f 156 172 155
f 173 172 156
f 157 173 156
f 174 173 157
f 158 174 157
f 175 174 158
f 159 175 158
f 176 175 159
f 160 176 159
f 177 176 160
f 161 177 160
f 162 177 161
f 146 162 161
f 162 163 178
f 163 164 178
f 164 165 178
f 165 166 178
f 166 167 178
f 167 168 178
f 168 169 178
f 169 170 178
f 170 171 178
f 171 172 178
f 172 173 178
f 173 174 178
f 174 175 178
f 175 176 178
f 176 177 178
f 177 162 178
